<svg width="13" height="13" viewBox="0 0 13 13" fill="none" xmlns="http://www.w3.org/2000/svg">
<path d="M9.25 1H3.75C2.23122 1 1 2.23122 1 3.75V9.25C1 10.7688 2.23122 12 3.75 12H9.25C10.7688 12 12 10.7688 12 9.25V3.75C12 2.23122 10.7688 1 9.25 1Z" fill="#D9D9D9" stroke="black" stroke-linecap="round" stroke-linejoin="round"/>
<path d="M8.7 6.15348C8.76787 6.61122 8.68969 7.0787 8.47656 7.48944C8.26344 7.90018 7.92623 8.23326 7.51289 8.4413C7.09956 8.64935 6.63114 8.72176 6.17428 8.64825C5.71742 8.57473 5.29537 8.35903 4.96816 8.03182C4.64095 7.70461 4.42525 7.28256 4.35173 6.8257C4.27822 6.36884 4.35063 5.90042 4.55868 5.48709C4.76672 5.07375 5.0998 4.73654 5.51054 4.52342C5.92128 4.31029 6.38876 4.23211 6.8465 4.29998C7.31341 4.36922 7.74567 4.58679 8.07943 4.92055C8.41319 5.25431 8.63076 5.68658 8.7 6.15348Z" fill="#D9D9D9" stroke="black" stroke-linecap="round" stroke-linejoin="round"/>
<path d="M9.52502 3.47501H9.53102" stroke="black" stroke-linecap="round" stroke-linejoin="round"/>
</svg>
