<svg width="16" height="13" viewBox="0 0 16 13" fill="none" xmlns="http://www.w3.org/2000/svg">
<path d="M15 1.00616C14.3906 1.42025 13.7159 1.73696 13.0018 1.9441C12.6186 1.51958 12.1092 1.2187 11.5427 1.08213C10.9761 0.945573 10.3797 0.979924 9.83405 1.18054C9.28842 1.38116 8.81992 1.73837 8.4919 2.20385C8.16388 2.66933 7.99217 3.22063 8 3.78319V4.39622C6.88168 4.42415 5.77354 4.18522 4.77428 3.7007C3.77502 3.21618 2.91566 2.50112 2.27273 1.61919C2.27273 1.61919 -0.272727 7.13646 5.45455 9.58857C4.14397 10.4456 2.58274 10.8753 1 10.8146C6.72727 13.8798 13.7273 10.8146 13.7273 3.7648C13.7267 3.59404 13.7096 3.4237 13.6764 3.25598C14.3258 2.63896 14.7842 1.85994 15 1.00616Z" fill="#D9D9D9" stroke="black" stroke-linecap="round" stroke-linejoin="round"/>
</svg>
